<?xml version="1.0" encoding="UTF-8" standalone="no"?>
<!-- Created with Inkscape (http://www.inkscape.org/) -->

<svg
   xmlns:dc="http://purl.org/dc/elements/1.1/"
   xmlns:cc="http://creativecommons.org/ns#"
   xmlns:rdf="http://www.w3.org/1999/02/22-rdf-syntax-ns#"
   xmlns:svg="http://www.w3.org/2000/svg"
   xmlns="http://www.w3.org/2000/svg"
   xmlns:sodipodi="http://sodipodi.sourceforge.net/DTD/sodipodi-0.dtd"
   xmlns:inkscape="http://www.inkscape.org/namespaces/inkscape"
   width="15.558347mm"
   height="15.558347mm"
   viewBox="0 0 55.128 55.128"
   id="svg6326"
   version="1.1"
   inkscape:version="0.91 r13725"
   sodipodi:docname="cs.svg">
  <defs
     id="defs6328" />
  <sodipodi:namedview
     id="base"
     pagecolor="#ffffff"
     bordercolor="#666666"
     borderopacity="1.0"
     inkscape:pageopacity="0.0"
     inkscape:pageshadow="2"
     inkscape:zoom="1.4"
     inkscape:cx="-97.197808"
     inkscape:cy="90.755782"
     inkscape:document-units="px"
     inkscape:current-layer="layer1"
     showgrid="false"
     fit-margin-top="0"
     fit-margin-left="0"
     fit-margin-right="0"
     fit-margin-bottom="0"
     inkscape:window-width="1366"
     inkscape:window-height="715"
     inkscape:window-x="-8"
     inkscape:window-y="-8"
     inkscape:window-maximized="1" />
  <metadata
     id="metadata6331">
    <rdf:RDF>
      <cc:Work
         rdf:about="">
        <dc:format>image/svg+xml</dc:format>
        <dc:type
           rdf:resource="http://purl.org/dc/dcmitype/StillImage" />
        <dc:title></dc:title>
      </cc:Work>
    </rdf:RDF>
  </metadata>
  <g
     inkscape:label="Layer 1"
     inkscape:groupmode="layer"
     id="layer1"
     transform="translate(-552.47331,-1000.4752)">
    <g
       style="fill:#ffffff;fill-opacity:1"
       id="g4633"
       transform="matrix(0.62780448,0,0,0.62780448,145.34654,648.35211)">
      <g
         style="fill:#68217a;fill-opacity:1"
         id="g4411-5-3"
         transform="translate(203.08868,-51.767708)">
        <g
           transform="matrix(0.53608187,0,0,0.53608187,711.35692,969.74748)"
           id="inkscape-logo-8-2-3-1"
           style="fill:#68217a;fill-opacity:1">
          <g
             style="fill:#68217a;fill-opacity:1"
             id="g4262-2-7-2-9"
             transform="translate(-729.26533,-472.56698)">
            <circle
               transform="matrix(2.2482497,0,0,2.2482497,-698.25699,-712.7583)"
               r="36.42857"
               cy="267.36221"
               cx="450.71429"
               id="path4242-0-0-5-1"
               style="opacity:1;fill:#1572b6;fill-opacity:1;stroke:none;stroke-width:1000;stroke-linejoin:miter;stroke-miterlimit:4;stroke-dasharray:none;stroke-opacity:1" />
          </g>
        </g>
        <g
           transform="matrix(1.3097117,0,0,1.3097117,100.68682,-324.30752)"
           id="g4403-8-1"
           style="fill:#68217a;fill-opacity:1" />
      </g>
      <g
         style="fill:none;fill-rule:evenodd;stroke:none;stroke-width:1"
         transform="matrix(0.11657053,0,0,0.11657053,675.22137,580.94732)"
         id="Page 1">
        <g
           id="Layer_1">
          <g
             id="g4602">
            <path
               d="m 233.164,15.681 -24.688,0 25.674,27.859 0,13.261 -52.882,0 0,-15.526 25.669,0 -25.669,-27.86 0,-13.28 51.896,0 0,15.546 0,0 z m -62.378,0 -24.688,0 25.673,27.859 0,13.261 -52.882,0 0,-15.526 25.672,0 -25.672,-27.86 0,-13.28 51.897,0 0,15.546 0,0 z m -61.768,0.631 -26.64,0 0,24.313 26.64,0 0,16.176 -45.574,0 0,-56.666 45.574,0 0,16.177 0,0 z m 0,0"
               id="Shape"
               inkscape:connector-curvature="0"
               style="fill:#ffffff;fill-opacity:1" />
            <path
               d="M 27.142,386.29 0.071,82.67 l 297.45,0 -27.096,303.571 -121.811,33.77 L 27.142,386.29 Z m 0,0"
               id="path11-4"
               inkscape:connector-curvature="0"
               style="fill:#ffffff;fill-opacity:1" />
          </g>
          <g
             transform="translate(55,142)"
             id="Group">
            <path
               style="fill:#1572b6;fill-opacity:1"
               d="m 369.81641,49.941406 0.0684,0.730469 0.13085,1.380859 0.0566,0.613282 0.01,0 6.55274,0 0.35546,0 3.49805,0 -0.24805,2.791015 -3.29101,0 -3.55664,0 0.0723,0.730469 0.13672,1.382812 0.0586,0.611329 0.01,0 3.2793,0 3.04883,0 -0.31836,3.533203 -3.0293,0.820312 0,-0.002 -0.01,0.0039 -0.002,0 -3.03515,-0.820312 -0.19532,-2.171875 -1.47461,0 -1.25976,0 0.38086,4.277344 5.58203,1.550781 0.004,-0.002 0.01,-0.002 5.57617,-1.546875 0.041,-0.458985 0.46484,-5.18164 0.01,-0.115235 0.66015,-7.394531 0.0645,-0.730469 -6.47657,0 -0.35546,0 -6.81836,0 z"
               transform="matrix(13.66428,0,0,13.66428,-5052.6333,-682.27588)"
               id="path16"
               inkscape:connector-curvature="0" />
          </g>
        </g>
      </g>
    </g>
  </g>
</svg>
