<?xml version="1.0" encoding="UTF-8" standalone="no"?>
<!-- Created with Inkscape (http://www.inkscape.org/) -->

<svg
   xmlns:dc="http://purl.org/dc/elements/1.1/"
   xmlns:cc="http://creativecommons.org/ns#"
   xmlns:rdf="http://www.w3.org/1999/02/22-rdf-syntax-ns#"
   xmlns:svg="http://www.w3.org/2000/svg"
   xmlns="http://www.w3.org/2000/svg"
   xmlns:sodipodi="http://sodipodi.sourceforge.net/DTD/sodipodi-0.dtd"
   xmlns:inkscape="http://www.inkscape.org/namespaces/inkscape"
   width="15.558347mm"
   height="15.558347mm"
   viewBox="0 0 55.128 55.128"
   id="svg6326"
   version="1.1"
   inkscape:version="0.91 r13725"
   sodipodi:docname="ht.svg">
  <defs
     id="defs6328" />
  <sodipodi:namedview
     id="base"
     pagecolor="#ffffff"
     bordercolor="#666666"
     borderopacity="1.0"
     inkscape:pageopacity="0.0"
     inkscape:pageshadow="2"
     inkscape:zoom="1.4"
     inkscape:cx="-133.20523"
     inkscape:cy="95.462638"
     inkscape:document-units="px"
     inkscape:current-layer="layer1"
     showgrid="false"
     fit-margin-top="0"
     fit-margin-left="0"
     fit-margin-right="0"
     fit-margin-bottom="0"
     inkscape:window-width="1366"
     inkscape:window-height="715"
     inkscape:window-x="-8"
     inkscape:window-y="-8"
     inkscape:window-maximized="1" />
  <metadata
     id="metadata6331">
    <rdf:RDF>
      <cc:Work
         rdf:about="">
        <dc:format>image/svg+xml</dc:format>
        <dc:type
           rdf:resource="http://purl.org/dc/dcmitype/StillImage" />
        <dc:title></dc:title>
      </cc:Work>
    </rdf:RDF>
  </metadata>
  <g
     inkscape:label="Layer 1"
     inkscape:groupmode="layer"
     id="layer1"
     transform="translate(-588.48073,-1005.1821)">
    <g
       style="fill:#ffffff;fill-opacity:1"
       transform="matrix(0.62780448,0,0,0.62780448,101.19359,546.66144)"
       id="g4679">
      <g
         style="fill:#e44d26;fill-opacity:1"
         id="g4411-5-3-1"
         transform="translate(330.77233,117.70784)">
        <g
           transform="matrix(0.53608187,0,0,0.53608187,711.35692,969.74748)"
           id="inkscape-logo-8-2-3-1-0"
           style="fill:#e44d26;fill-opacity:1">
          <g
             style="fill:#e44d26;fill-opacity:1"
             id="g4262-2-7-2-9-9"
             transform="translate(-729.26533,-472.56698)">
            <circle
               transform="matrix(2.2482497,0,0,2.2482497,-698.25699,-712.7583)"
               r="36.42857"
               cy="267.36221"
               cx="450.71429"
               id="path4242-0-0-5-1-6"
               style="opacity:1;fill:#e44d26;fill-opacity:1;stroke:none;stroke-width:1000;stroke-linejoin:miter;stroke-miterlimit:4;stroke-dasharray:none;stroke-opacity:1" />
          </g>
        </g>
        <g
           transform="matrix(1.3097117,0,0,1.3097117,100.68682,-324.30752)"
           id="g4403-8-1-2"
           style="fill:#e44d26;fill-opacity:1" />
      </g>
      <g
         id="g4662"
         transform="matrix(1.7337966,0,0,1.7337966,802.803,749.40888)">
        <polygon
           style="fill:#ffffff;fill-opacity:1"
           transform="matrix(0.05513682,0,0,0.05513682,-4.1150263,0)"
           id="polygon6"
           points="437.367,100.62 404.321,470.819 255.778,512 107.644,470.877 74.633,100.62 " />
        <path
           style="fill:#e44d26;fill-opacity:1"
           d="m 450.5625,157.51953 0.0605,0.66992 0.61523,6.90039 5.60352,0 3.07422,0 -0.29102,3.24805 -2.7832,0.75195 -0.01,0.002 -0.002,0 -2.78711,-0.75196 -0.17969,-1.99804 -1.35547,0 -1.1582,0 0.35156,3.93164 5.12891,1.42383 0.002,-0.002 0.01,-0.002 5.12304,-1.41992 0.0391,-0.42383 0.58789,-6.5918 0.0605,-0.67187 -0.67382,0 -5.13672,0 -3.31446,0 -0.22851,-2.56446 3.54297,0 6.03125,0 0.008,0 0.0508,-0.5625 0.11328,-1.26953 0.0606,-0.66992 -6.27344,0 -6.26953,0 z"
           transform="translate(-446.84149,-147.79771)"
           id="polygon10"
           inkscape:connector-curvature="0" />
        <path
           inkscape:connector-curvature="0"
           id="path14"
           d="m 1.8608127,0 1.272392,0 0,1.25712 1.163938,0 0,-1.25712 1.272448,0 0,3.80686 -1.272393,0 0,-1.27476 -1.163938,0 0,1.27476 -1.272392,0 0,-3.80686 z" />
        <path
           inkscape:connector-curvature="0"
           id="path16-0"
           d="m 7.2428277,1.26241 -1.12016,0 0,-1.26241 3.513319,0 0,1.26241 -1.120656,0 0,2.54445 -1.272448,0 0,-2.54445 z" />
        <path
           inkscape:connector-curvature="0"
           id="path18"
           d="M 10.193585,0 11.520343,0 12.336478,1.33762 13.151786,0 l 1.327254,0 0,3.80686 -1.267155,0 0,-1.88689 -0.875407,1.35356 -0.02189,0 -0.876014,-1.35356 0,1.88689 -1.24499,0 0,-3.80686 z" />
        <path
           inkscape:connector-curvature="0"
           id="path20"
           d="m 15.112286,0 1.272779,0 0,2.54853 1.789355,0 0,1.25833 -3.062134,0 0,-3.80686 z" />
      </g>
    </g>
  </g>
</svg>
