<?xml version="1.0" encoding="UTF-8" standalone="no"?>
<!-- Created with Inkscape (http://www.inkscape.org/) -->

<svg
   xmlns:dc="http://purl.org/dc/elements/1.1/"
   xmlns:cc="http://creativecommons.org/ns#"
   xmlns:rdf="http://www.w3.org/1999/02/22-rdf-syntax-ns#"
   xmlns:svg="http://www.w3.org/2000/svg"
   xmlns="http://www.w3.org/2000/svg"
   xmlns:sodipodi="http://sodipodi.sourceforge.net/DTD/sodipodi-0.dtd"
   xmlns:inkscape="http://www.inkscape.org/namespaces/inkscape"
   width="15.558247mm"
   height="15.558247mm"
   viewBox="0 0 55.127645 55.127645"
   id="svg6326"
   version="1.1"
   inkscape:version="0.91 r13725"
   sodipodi:docname="ps.svg">
  <defs
     id="defs6328" />
  <sodipodi:namedview
     id="base"
     pagecolor="#ffffff"
     bordercolor="#666666"
     borderopacity="1.0"
     inkscape:pageopacity="0.0"
     inkscape:pageshadow="2"
     inkscape:zoom="1.4"
     inkscape:cx="199.98219"
     inkscape:cy="66.507193"
     inkscape:document-units="px"
     inkscape:current-layer="layer1"
     showgrid="false"
     fit-margin-top="0"
     fit-margin-left="0"
     fit-margin-right="0"
     fit-margin-bottom="0"
     inkscape:window-width="1366"
     inkscape:window-height="715"
     inkscape:window-x="-8"
     inkscape:window-y="-8"
     inkscape:window-maximized="1" />
  <metadata
     id="metadata6331">
    <rdf:RDF>
      <cc:Work
         rdf:about="">
        <dc:format>image/svg+xml</dc:format>
        <dc:type
           rdf:resource="http://purl.org/dc/dcmitype/StillImage" />
        <dc:title></dc:title>
      </cc:Work>
    </rdf:RDF>
  </metadata>
  <g
     inkscape:label="Layer 1"
     inkscape:groupmode="layer"
     id="layer1"
     transform="translate(-255.29332,-976.22695)">
    <g
       id="g4232"
       transform="matrix(0.11999574,0,0,0.11999574,246.30625,928.22767)">
      <g
         transform="translate(364.66507,37.47717)"
         id="g4227">
        <circle
           style="opacity:1;fill:#172466;fill-opacity:1;stroke:none;stroke-width:1000;stroke-linejoin:miter;stroke-miterlimit:4;stroke-dasharray:none;stroke-opacity:1"
           id="path4136-1-4"
           cx="-60.063461"
           cy="592.23773"
           r="229.70668" />
        <circle
           style="opacity:1;fill:#172466;fill-opacity:1;stroke:none;stroke-width:1000;stroke-linejoin:miter;stroke-miterlimit:4;stroke-dasharray:none;stroke-opacity:1"
           id="path4136"
           cx="-59.285717"
           cy="591.64795"
           r="180.71428" />
      </g>
      <g
         id="g4222"
         transform="matrix(1.2784757,0,0,1.2784757,-96.047603,-165.47453)"
         style="fill:#ffffff;fill-opacity:1">
        <path
           style="fill:#ffffff;fill-opacity:1;fill-rule:evenodd;stroke:none;stroke-width:1px;stroke-linecap:butt;stroke-linejoin:miter;stroke-opacity:1"
           d="m 216.42857,540.57649 0,160.71429 21.78572,0 0,-53.21429 c 56.84389,4.25596 80.48419,-16.67701 82.14285,-54.28571 1.16255,-41.47029 -29.77626,-56.47104 -82.85714,-53.21429 z"
           id="path4210"
           inkscape:connector-curvature="0"
           sodipodi:nodetypes="ccccccc" />
        <path
           style="fill:#172466;fill-opacity:1;fill-rule:evenodd;stroke:none;stroke-width:1px;stroke-linecap:butt;stroke-linejoin:miter;stroke-opacity:1"
           d="m 238.21429,629.14792 0,-70.71429 c 20.64822,-0.10107 59.36833,-6.36889 61.42857,34.64286 -2.21029,45.80195 -52.60161,38.57863 -61.42857,36.07143 z"
           id="path4212"
           inkscape:connector-curvature="0"
           sodipodi:nodetypes="cccc" />
        <path
           style="fill:#ffffff;fill-opacity:1;fill-rule:evenodd;stroke:none;stroke-width:1px;stroke-linecap:butt;stroke-linejoin:miter;stroke-opacity:1"
           d="m 337.5,673.79078 0,18.92857 c 24.71991,15.61191 50.14949,14.6395 69.28571,0 15.77424,-18.9299 10.47132,-37.52167 0,-45.71429 -17.68189,-15.83124 -46.16269,-15.67681 -48.57142,-35 -1.11667,-11.64618 21.34314,-21.01146 52.5,-4.64286 l 0,-17.5 c -19.04762,-11.42857 -39.04762,-11.42858 -60,0 -25.03451,21.27516 -6.55292,46.39649 0,49.64286 19.56508,14.14324 45.57701,15.56782 45.71428,32.5 -8.89521,25.41803 -39.30972,13.38276 -58.92857,1.78572 z"
           id="path4214"
           inkscape:connector-curvature="0"
           sodipodi:nodetypes="ccccccccccc" />
      </g>
    </g>
  </g>
</svg>
