<?xml version="1.0" encoding="UTF-8" standalone="no"?>
<!-- Created with Inkscape (http://www.inkscape.org/) -->

<svg
   xmlns:dc="http://purl.org/dc/elements/1.1/"
   xmlns:cc="http://creativecommons.org/ns#"
   xmlns:rdf="http://www.w3.org/1999/02/22-rdf-syntax-ns#"
   xmlns:svg="http://www.w3.org/2000/svg"
   xmlns="http://www.w3.org/2000/svg"
   xmlns:sodipodi="http://sodipodi.sourceforge.net/DTD/sodipodi-0.dtd"
   xmlns:inkscape="http://www.inkscape.org/namespaces/inkscape"
   width="251.00983"
   height="80"
   viewBox="0 0 251.00983 80.000001"
   id="svg2"
   version="1.1"
   inkscape:version="0.91 r13725"
   sodipodi:docname="logo-hov.svg">
  <defs
     id="defs4">
    <inkscape:path-effect
       effect="spiro"
       id="path-effect4171"
       is_visible="true" />
    <inkscape:path-effect
       effect="spiro"
       id="path-effect4167"
       is_visible="true" />
  </defs>
  <sodipodi:namedview
     id="base"
     pagecolor="#000000"
     bordercolor="#666666"
     borderopacity="1.0"
     inkscape:pageopacity="0"
     inkscape:pageshadow="2"
     inkscape:zoom="3.959798"
     inkscape:cx="65.200175"
     inkscape:cy="9.1565149"
     inkscape:document-units="px"
     inkscape:current-layer="text4210"
     showgrid="false"
     showguides="true"
     inkscape:guide-bbox="true"
     inkscape:window-width="1366"
     inkscape:window-height="715"
     inkscape:window-x="-8"
     inkscape:window-y="-8"
     inkscape:window-maximized="1"
     fit-margin-top="0"
     fit-margin-left="0"
     fit-margin-right="0"
     fit-margin-bottom="0"
     units="px">
    <sodipodi:guide
       position="-0.16925907,53.285533"
       orientation="1,0"
       id="guide4151" />
    <sodipodi:guide
       position="79.885332,39.143393"
       orientation="1,0"
       id="guide4153" />
    <sodipodi:guide
       position="39.984301,80.054573"
       orientation="0,1"
       id="guide4155" />
    <sodipodi:guide
       position="36.701311,-1.6992036e-005"
       orientation="0,1"
       id="guide4157" />
  </sodipodi:namedview>
  <metadata
     id="metadata7">
    <rdf:RDF>
      <cc:Work
         rdf:about="">
        <dc:format>image/svg+xml</dc:format>
        <dc:type
           rdf:resource="http://purl.org/dc/dcmitype/StillImage" />
        <dc:title />
      </cc:Work>
    </rdf:RDF>
  </metadata>
  <g
     inkscape:label="Layer 1"
     inkscape:groupmode="layer"
     id="layer1"
     transform="translate(-217.6046,-212.47495)">
    <g
       id="g4190">
      <rect
         y="212.47495"
         x="217.6046"
         height="80"
         width="80"
         id="rect4147"
         style="opacity:1;fill:#666666;fill-opacity:1;stroke:none;stroke-width:5;stroke-linejoin:miter;stroke-miterlimit:4;stroke-dasharray:none;stroke-opacity:1" />
      <circle
         r="30"
         cy="252.47495"
         cx="257.60461"
         id="path4149"
         style="opacity:1;fill:#000000;fill-opacity:1;stroke:none;stroke-width:5;stroke-linejoin:miter;stroke-miterlimit:4;stroke-dasharray:none;stroke-opacity:1" />
      <g
         transform="matrix(0.96373812,0,0,0.96373812,9.5875288,-67.859475)"
         id="g4185"
         style="fill:#666666;fill-opacity:1">
        <path
           style="fill:#666666;fill-opacity:1;fill-rule:evenodd;stroke:none;stroke-width:1px;stroke-linecap:butt;stroke-linejoin:miter;stroke-opacity:1"
           d="m 238.57143,319.41577 0,17.14286 7.05357,0 0,-10 3.75,0 19.55357,0 0,-7.14286 -30.35714,0 z"
           id="path4165"
           inkscape:path-effect="#path-effect4167"
           inkscape:original-d="m 238.57143,319.41577 0,17.14286 7.05357,0 0,-10 3.75,0 19.55357,0 0,-7.14286 z"
           inkscape:connector-curvature="0" />
        <path
           style="fill:#666666;fill-opacity:1;fill-rule:evenodd;stroke:none;stroke-width:1px;stroke-linecap:butt;stroke-linejoin:miter;stroke-opacity:1"
           d="m 251.33929,311.55863 c 3.6636,16.90126 14.66561,24.89159 24.73214,34.01786 l -5.08929,4.375 c -13.59526,-9.41427 -23.5066,-21.0389 -27.58928,-36.16072 z"
           id="path4181"
           inkscape:connector-curvature="0"
           sodipodi:nodetypes="ccccc" />
        <path
           style="fill:#666666;fill-opacity:1;fill-rule:evenodd;stroke:none;stroke-width:1px;stroke-linecap:butt;stroke-linejoin:miter;stroke-opacity:1"
           d="m 244.91071,348.25506 c 17.68771,-7.47538 17.39071,-17.55725 19.28572,-27.32143 l 6.78571,0 c -1.50958,13.59405 -3.89262,26.75771 -21.51785,32.41072 z"
           id="path4183"
           inkscape:connector-curvature="0"
           sodipodi:nodetypes="ccccc" />
      </g>
    </g>
    <g
       id="g4214"
       transform="translate(1.0101525,0.60006)"
       style="fill:#666666;fill-opacity:1">
      <path
         transform="matrix(1.0024464,0,0,1.0024464,-0.24869135,0.404049)"
         style="font-style:normal;font-weight:normal;font-size:26.07907486px;line-height:125%;font-family:sans-serif;letter-spacing:0px;word-spacing:0px;fill:#666666;fill-opacity:1;stroke:none;stroke-width:1px;stroke-linecap:butt;stroke-linejoin:miter;stroke-opacity:1"
         d="m 328.82812,223.93164 c -1.74879,0 -3.37435,0.4381 -4.87695,1.3125 -1.5026,0.86591 -2.69201,2.06696 -3.5664,3.60352 -0.86591,1.53656 -1.29883,3.20417 -1.29883,5.0039 0,2.69959 0.95514,5.00075 2.86523,6.90235 1.91009,1.9016 4.2533,2.85156 7.0293,2.85156 2.74204,0 5.06324,-0.95515 6.96484,-2.86524 1.91009,-1.91008 2.86524,-4.23452 2.86524,-6.97656 0,-2.7675 -0.95515,-5.09908 -2.86524,-6.99219 -1.91009,-1.89311 -4.28176,-2.83984 -7.11719,-2.83984 z m -15.38281,0.4707 0,12.58204 c 0,1.53656 -0.0893,2.57259 -0.26758,3.10742 -0.16978,0.53482 -0.47652,0.96256 -0.91796,1.28515 -0.43296,0.3226 -0.91635,0.48438 -1.45118,0.48438 -0.40748,0 -0.82358,-0.0925 -1.24804,-0.2793 -0.64519,-0.28015 -1.45538,-0.76549 -2.43164,-1.45312 l -0.99414,1.49023 c 0.89137,0.73857 1.70351,1.25238 2.43359,1.54102 0.73857,0.29712 1.48469,0.44531 2.24023,0.44531 1.00174,0 1.85594,-0.2239 2.56055,-0.67383 0.70461,-0.45842 1.20483,-1.06672 1.50195,-1.82226 0.30562,-0.76404 0.45899,-2.11651 0.45899,-4.06055 l 0,-12.64649 -1.88477,0 z m 29.09571,0 0,18.73243 1.88476,0 0,-9.04102 9.52539,0 0,9.04102 1.88477,0 0,-18.73243 -1.88477,0 0,7.85743 -9.52539,0 0,-7.85743 -1.88476,0 z m 17.86718,0 0,18.73243 1.93555,0 0,-14.16016 12.35156,14.16016 0.41992,0 0,-18.73243 -1.8457,0 0,14.33985 -12.45508,-14.33985 -0.40625,0 z m 33.71875,0 -8.84961,18.73243 2.08789,0 2.92969,-6.16407 8.07227,0 2.9414,6.16407 2.01172,0 -8.73437,-18.73243 -0.45899,0 z m 12.10938,0 0,18.73243 9.08008,0 0,-1.8086 -7.19532,0 0,-16.92383 -1.88476,0 z m 10.21289,0 0,1.82227 4.18945,0 0,16.91016 1.91016,0 0,-16.91016 4.17773,0 0,-1.82227 -10.27734,0 z m 20.10742,0 -8.84961,18.73243 2.08789,0 2.92774,-6.16407 8.07422,0 2.9414,6.16407 2.01172,0 -8.73438,-18.73243 -0.45898,0 z m 11.8418,0 0,18.73243 1.87304,0 0,-18.73243 -1.87304,0 z m 6.33008,0 0,18.73243 1.87109,0 0,-8.70899 1.07031,0 6.72266,8.70899 2.31836,0 -6.73633,-8.70899 c 1.57052,-0.008 2.80003,-0.2091 3.69141,-0.59961 0.89137,-0.39899 1.57538,-0.98529 2.05078,-1.75781 0.48389,-0.77253 0.72656,-1.66683 0.72656,-2.68555 0,-1.22245 -0.3488,-2.25008 -1.04492,-3.08203 -0.69612,-0.84044 -1.6008,-1.3879 -2.71289,-1.64258 -0.73857,-0.16978 -2.14669,-0.25586 -4.22657,-0.25586 l -3.73046,0 z m -125.8125,1.36328 c 1.40922,10e-6 2.74163,0.36045 3.99804,1.08204 1.25642,0.72159 2.22839,1.68514 2.91602,2.89062 0.69612,1.19699 1.04492,2.53977 1.04492,4.02539 0,1.49412 -0.3488,2.85176 -1.04492,4.07422 -0.68763,1.22246 -1.64924,2.18602 -2.88867,2.89063 -1.23095,0.70461 -2.57373,1.05664 -4.02539,1.05664 -2.17326,0 -4.03113,-0.7649 -5.57618,-2.29297 -1.53656,-1.53656 -2.30468,-3.41644 -2.30468,-5.64063 0,-1.5026 0.34684,-2.86543 1.04296,-4.08789 0.69613,-1.22245 1.66487,-2.19442 2.9043,-2.91601 1.23944,-0.72159 2.54984,-1.08204 3.9336,-1.08204 z m 127.68359,0.47071 3.29883,0 c 1.28188,0 2.19819,0.11131 2.75,0.33203 0.5518,0.22072 0.99636,0.58958 1.33594,1.10742 0.33957,0.50936 0.50976,1.07883 0.50976,1.70703 0,0.64519 -0.17019,1.22953 -0.50976,1.75586 -0.33109,0.51785 -0.79766,0.89707 -1.4004,1.13477 -0.59425,0.2377 -1.51574,0.35547 -2.76367,0.35547 l -3.2207,-0.0254 0,-6.36719 z m -62.24414,2.14062 3.18359,6.78711 -6.40429,0 3.2207,-6.78711 z m 42.42969,0 3.18359,6.78711 -6.4043,0 3.22071,-6.78711 z"
         id="path4206" />
      <g
         style="font-style:normal;font-variant:normal;font-weight:bold;font-stretch:normal;font-size:35.26583481px;line-height:125%;font-family:'century gothic';-inkscape-font-specification:'century gothic Bold';letter-spacing:0px;word-spacing:0px;fill:#666666;fill-opacity:1;stroke:none;stroke-width:1px;stroke-linecap:butt;stroke-linejoin:miter;stroke-opacity:1"
         id="text4210">
        <path
           d="m 331.15581,255.46463 -3.39227,3.35783 q -3.22007,-3.40949 -7.50776,-3.40949 -3.73667,0 -6.26796,2.47963 -2.51406,2.47963 -2.51406,6.02688 0,3.66778 2.61738,6.21629 2.61739,2.54851 6.45737,2.54851 2.49685,0 4.20159,-1.0504 1.72197,-1.0504 2.77237,-3.28895 l -7.33557,0 0,-4.52877 12.74253,0 0.0344,1.06762 q 0,3.32339 -1.72196,6.30239 -1.72197,2.979 -4.45989,4.54599 -2.73792,1.56698 -6.42293,1.56698 -3.9433,0 -7.04283,-1.70474 -3.08232,-1.72196 -4.89038,-4.89038 -1.79084,-3.16841 -1.79084,-6.8362 0,-5.02814 3.32339,-8.74758 3.9433,-4.42545 10.26291,-4.42545 3.30617,0 6.18185,1.2226 2.42797,1.03318 4.75262,3.54724 z"
           style=""
           id="path4737" />
        <path
           d="m 337.40654,251.33192 13.82738,0 0,4.71818 -9.04032,0 0,4.58043 9.04032,0 0,4.63208 -9.04032,0 0,6.66401 9.04032,0 0,4.7354 -13.82738,0 0,-25.3301 z"
           style=""
           id="path4739" />
        <path
           d="m 355.72824,251.33192 4.61487,0 10.86559,16.66862 0,-16.66862 4.82151,0 0,25.3301 -4.63209,0 -10.84838,-16.61696 0,16.61696 -4.8215,0 0,-25.3301 z"
           style=""
           id="path4741" />
        <path
           d="m 395.09236,254.77585 -3.56447,3.15119 q -1.87694,-2.61738 -3.82276,-2.61738 -0.94708,0 -1.54977,0.51659 -0.60269,0.49937 -0.60269,1.13649 0,0.63713 0.4305,1.20538 0.58546,0.75766 3.53002,3.25451 2.75515,2.30743 3.34061,2.91012 1.46367,1.48089 2.06636,2.84124 0.61991,1.34314 0.61991,2.94456 0,3.11676 -2.15246,5.14868 -2.15245,2.03191 -5.6136,2.03191 -2.70349,0 -4.71818,-1.32591 -1.99748,-1.32591 -3.42671,-4.16715 l 4.04661,-2.44519 q 1.82529,3.35783 4.2016,3.35783 1.23981,0 2.08357,-0.72323 0.84377,-0.72322 0.84377,-1.6703 0,-0.86098 -0.63713,-1.72197 -0.63713,-0.86098 -2.8068,-2.6346 -4.13272,-3.37505 -5.33809,-5.20034 -1.20538,-1.8425 -1.20538,-3.66778 0,-2.63461 1.99748,-4.51155 2.0147,-1.89416 4.95926,-1.89416 1.89416,0 3.5989,0.8782 1.72197,0.87821 3.71945,3.20286 z"
           style=""
           id="path4743" />
        <path
           d="m 412.10537,250.69479 q 5.37253,0 9.22973,3.89164 3.87442,3.89164 3.87442,9.48803 0,5.54472 -3.82276,9.3847 -3.80555,3.83998 -9.24695,3.83998 -5.69971,0 -9.47081,-3.94329 -3.7711,-3.9433 -3.7711,-9.36749 0,-3.63335 1.7564,-6.68122 1.75641,-3.04788 4.8215,-4.82151 3.08232,-1.79084 6.62957,-1.79084 z m -0.0517,4.71818 q -3.51281,0 -5.90634,2.44519 -2.39353,2.44519 -2.39353,6.2163 0,4.20159 3.01344,6.64678 2.34187,1.91138 5.37253,1.91138 3.42671,0 5.83746,-2.47963 2.41075,-2.47963 2.41075,-6.11297 0,-3.61613 -2.42797,-6.11298 -2.42797,-2.51407 -5.90634,-2.51407 z"
           style=""
           id="path4745" />
        <path
           d="m 429.7555,251.33192 4.8215,0 0,20.73245 7.02562,0 0,4.59765 -11.84712,0 0,-25.3301 z"
           style=""
           id="path4747" />
        <path
           d="m 452.96758,251.33192 4.89038,0 9.74632,25.3301 -5.01092,0 -1.98026,-5.21755 -10.33179,0 -2.06636,5.21755 -5.01091,0 9.76354,-25.3301 z m 2.47963,6.71566 -3.37505,8.69592 6.73288,0 -3.35783,-8.69592 z"
           style=""
           id="path4749" />
      </g>
    </g>
  </g>
</svg>
