<?xml version="1.0" encoding="UTF-8" standalone="no"?>
<!-- Created with Inkscape (http://www.inkscape.org/) -->

<svg
   xmlns:dc="http://purl.org/dc/elements/1.1/"
   xmlns:cc="http://creativecommons.org/ns#"
   xmlns:rdf="http://www.w3.org/1999/02/22-rdf-syntax-ns#"
   xmlns:svg="http://www.w3.org/2000/svg"
   xmlns="http://www.w3.org/2000/svg"
   xmlns:sodipodi="http://sodipodi.sourceforge.net/DTD/sodipodi-0.dtd"
   xmlns:inkscape="http://www.inkscape.org/namespaces/inkscape"
   width="799.99994"
   height="254.97009"
   viewBox="0 0 799.99995 254.9701"
   id="svg2"
   version="1.1"
   inkscape:version="0.91 r13725"
   sodipodi:docname="logo.svg"
   inkscape:export-filename="C:\Users\ASUS\Desktop\logo.png"
   inkscape:export-xdpi="90"
   inkscape:export-ydpi="90">
  <defs
     id="defs4">
    <inkscape:path-effect
       effect="spiro"
       id="path-effect4171"
       is_visible="true" />
    <inkscape:path-effect
       effect="spiro"
       id="path-effect4167"
       is_visible="true" />
  </defs>
  <sodipodi:namedview
     id="base"
     pagecolor="#000000"
     bordercolor="#666666"
     borderopacity="1.0"
     inkscape:pageopacity="0"
     inkscape:pageshadow="2"
     inkscape:zoom="0.12374369"
     inkscape:cx="887.60627"
     inkscape:cy="1360.4958"
     inkscape:document-units="px"
     inkscape:current-layer="text4210"
     showgrid="false"
     showguides="true"
     inkscape:guide-bbox="true"
     inkscape:window-width="1366"
     inkscape:window-height="715"
     inkscape:window-x="-8"
     inkscape:window-y="-8"
     inkscape:window-maximized="1"
     fit-margin-top="0"
     fit-margin-left="0"
     fit-margin-right="0"
     fit-margin-bottom="0"
     units="px">
    <sodipodi:guide
       position="-0.16924602,53.285515"
       orientation="1,0"
       id="guide4151" />
    <sodipodi:guide
       position="79.885345,39.143375"
       orientation="1,0"
       id="guide4153" />
    <sodipodi:guide
       position="39.984314,80.054555"
       orientation="0,1"
       id="guide4155" />
    <sodipodi:guide
       position="36.701324,-3.5968602e-005"
       orientation="0,1"
       id="guide4157" />
  </sodipodi:namedview>
  <metadata
     id="metadata7">
    <rdf:RDF>
      <cc:Work
         rdf:about="">
        <dc:format>image/svg+xml</dc:format>
        <dc:type
           rdf:resource="http://purl.org/dc/dcmitype/StillImage" />
        <dc:title></dc:title>
      </cc:Work>
    </rdf:RDF>
  </metadata>
  <g
     inkscape:label="Layer 1"
     inkscape:groupmode="layer"
     id="layer1"
     transform="translate(-217.60459,-37.504843)">
    <g
       id="g4190"
       transform="matrix(3.1871261,0,0,3.1871261,-475.92871,-639.6796)">
      <rect
         y="212.47495"
         x="217.6046"
         height="80"
         width="80"
         id="rect4147"
         style="opacity:1;fill:#ffffff;fill-opacity:1;stroke:none;stroke-width:5;stroke-linejoin:miter;stroke-miterlimit:4;stroke-dasharray:none;stroke-opacity:1" />
      <circle
         r="30"
         cy="252.47495"
         cx="257.60461"
         id="path4149"
         style="opacity:1;fill:#000000;fill-opacity:1;stroke:none;stroke-width:5;stroke-linejoin:miter;stroke-miterlimit:4;stroke-dasharray:none;stroke-opacity:1" />
      <g
         transform="matrix(0.96373812,0,0,0.96373812,9.5875288,-67.859475)"
         id="g4185">
        <path
           style="fill:#ffffff;fill-opacity:1;fill-rule:evenodd;stroke:none;stroke-width:1px;stroke-linecap:butt;stroke-linejoin:miter;stroke-opacity:1"
           d="m 238.57143,319.41577 0,17.14286 7.05357,0 0,-10 3.75,0 19.55357,0 0,-7.14286 -30.35714,0 z"
           id="path4165"
           inkscape:path-effect="#path-effect4167"
           inkscape:original-d="m 238.57143,319.41577 0,17.14286 7.05357,0 0,-10 3.75,0 19.55357,0 0,-7.14286 z"
           inkscape:connector-curvature="0" />
        <path
           style="fill:#ffffff;fill-opacity:1;fill-rule:evenodd;stroke:none;stroke-width:1px;stroke-linecap:butt;stroke-linejoin:miter;stroke-opacity:1"
           d="m 251.33929,311.55863 c 3.6636,16.90126 14.66561,24.89159 24.73214,34.01786 l -5.08929,4.375 c -13.59526,-9.41427 -23.5066,-21.0389 -27.58928,-36.16072 z"
           id="path4181"
           inkscape:connector-curvature="0"
           sodipodi:nodetypes="ccccc" />
        <path
           style="fill:#ffffff;fill-opacity:1;fill-rule:evenodd;stroke:none;stroke-width:1px;stroke-linecap:butt;stroke-linejoin:miter;stroke-opacity:1"
           d="m 244.91071,348.25506 c 17.68771,-7.47538 17.39071,-17.55725 19.28572,-27.32143 l 6.78571,0 c -1.50958,13.59405 -3.89262,26.75771 -21.51785,32.41072 z"
           id="path4183"
           inkscape:connector-curvature="0"
           sodipodi:nodetypes="ccccc" />
      </g>
    </g>
    <g
       id="g4214"
       transform="translate(1.0101525,0.60006)">
      <path
         style="font-style:normal;font-weight:normal;font-size:26.07907486px;line-height:125%;font-family:sans-serif;letter-spacing:0px;word-spacing:0px;fill:#ffffff;fill-opacity:1;stroke:none;stroke-width:1px;stroke-linecap:butt;stroke-linejoin:miter;stroke-opacity:1"
         d="m 576.06858,78.36494 c -5.58725,0 -10.78079,1.399696 -15.58148,4.193337 -4.80069,2.766515 -8.60077,6.603778 -11.39438,11.512969 -2.76651,4.909191 -4.14966,10.237074 -4.14966,15.987074 0,8.62498 3.0516,15.97701 9.15419,22.05248 6.10259,6.07547 13.58897,9.11051 22.45807,9.11051 8.76061,0 16.17667,-3.05163 22.25213,-9.15422 6.10259,-6.10256 9.15422,-13.52896 9.15422,-22.28957 0,-8.84195 -3.05163,-16.291169 -9.15422,-22.33951 -6.10259,-6.04834 -13.67989,-9.07307 -22.73887,-9.07307 z m -49.1469,1.50385 0,40.19865 c 0,4.90919 -0.2853,8.21923 -0.8549,9.92797 -0.54243,1.70871 -1.52244,3.0753 -2.93281,4.10595 -1.38327,1.03069 -2.92766,1.54756 -4.63641,1.54756 -1.30186,0 -2.63127,-0.29553 -3.98739,-0.89234 -2.06133,-0.89506 -4.64982,-2.44568 -7.7689,-4.64261 l -3.1762,4.76117 c 2.84786,2.35968 5.44258,4.00126 7.77513,4.92344 2.35968,0.94928 4.74347,1.42273 7.15736,1.42273 3.20049,0 5.92959,-0.71534 8.18077,-2.15283 2.25117,-1.46462 3.84933,-3.40809 4.79861,-5.82198 0.97643,-2.44105 1.46644,-6.76209 1.46644,-12.97315 l 0,-40.40456 -6.0217,0 z m 92.95856,0 0,59.84867 6.02166,0 0,-28.88536 30.43289,0 0,28.88536 6.0217,0 0,-59.84867 -6.0217,0 0,25.10389 -30.43289,0 0,-25.10389 -6.02166,0 z m 57.08427,0 0,59.84867 6.18393,0 0,-45.240619 39.46228,45.240619 1.34162,0 0,-59.84867 -5.89687,0 0,45.81472 -39.79303,-45.81472 -1.29793,0 z m 107.72881,0 -28.27382,59.84867 6.67064,0 9.36014,-19.69373 25.79028,0 9.39755,19.69373 6.42729,0 -27.90564,-59.84867 -1.46644,0 z m 38.68854,0 0,59.84867 29.01015,0 0,-5.77833 -22.98849,0 0,-54.07034 -6.02166,0 z m 32.6294,0 0,5.822013 13.38497,0 0,54.026657 6.10281,0 0,-54.026657 13.34753,0 0,-5.822013 -32.83531,0 z m 64.24166,0 -28.27383,59.84867 6.67065,0 9.35391,-19.69373 25.79651,0 9.39754,19.69373 6.4273,0 -27.90568,-59.84867 -1.4664,0 z m 37.83364,0 0,59.84867 5.98422,0 0,-59.84867 -5.98422,0 z m 20.22412,0 0,59.84867 5.97798,0 0,-27.82455 3.41956,0 21.47838,27.82455 7.407,0 -21.52207,-27.82455 c 5.01767,-0.0256 8.94587,-0.66806 11.79377,-1.91571 2.8479,-1.27474 5.0332,-3.14792 6.5521,-5.61607 1.546,-2.46817 2.3213,-5.325389 2.3213,-8.580121 0,-3.905634 -1.1144,-7.188833 -3.3384,-9.846849 -2.2241,-2.685141 -5.1145,-4.434234 -8.6675,-5.247917 -2.3597,-0.542434 -6.85853,-0.817453 -13.50359,-0.817453 l -11.91853,0 z m -401.96127,4.355575 c 4.50235,3.2e-5 8.7593,1.15161 12.77343,3.457035 4.01417,2.305424 7.11954,5.383892 9.31646,9.235308 2.22405,3.824292 3.33844,8.114372 3.33844,12.860812 0,4.7736 -1.11439,9.11115 -3.33844,13.01682 -2.19692,3.90567 -5.26919,6.98417 -9.22908,9.23534 -3.93279,2.25118 -8.22287,3.37588 -12.86081,3.37588 -6.9434,0 -12.87915,-2.44379 -17.81546,-7.32586 -4.9092,-4.90919 -7.36328,-10.91526 -7.36328,-18.02138 0,-4.80069 1.10813,-9.15483 3.33218,-13.060493 2.22408,-3.905633 5.31913,-7.011003 9.27901,-9.316427 3.95992,-2.305425 8.14654,-3.457035 12.56755,-3.457035 z m 407.93925,1.503882 10.53951,0 c 4.09551,0 7.02303,0.355627 8.78603,1.060811 1.763,0.705183 3.1833,1.883662 4.2682,3.538121 1.0849,1.627366 1.6287,3.446779 1.6287,5.45383 0,2.061332 -0.5438,3.928254 -1.6287,5.609841 -1.0578,1.65449 -2.5484,2.86607 -4.4741,3.6255 -1.8986,0.75943 -4.84271,1.1357 -8.82975,1.1357 l -10.28989,-0.0812 0,-20.342685 z m -198.86524,6.839117 10.17133,21.684296 -20.46122,0 10.28989,-21.684296 z m 135.5596,0 10.17133,21.684296 -20.46125,0 10.28992,-21.684296 z"
         id="path4206"
         inkscape:connector-curvature="0" />
      <g
         style="font-style:normal;font-variant:normal;font-weight:bold;font-stretch:normal;font-size:35.26583481px;line-height:125%;font-family:'century gothic';-inkscape-font-specification:'century gothic Bold';letter-spacing:0px;word-spacing:0px;fill:#ffffff;fill-opacity:1;stroke:none;stroke-width:1px;stroke-linecap:butt;stroke-linejoin:miter;stroke-opacity:1"
         id="text4210">
        <path
           d="m 581.71596,175.83081 -10.81159,10.70183 q -10.26277,-10.86648 -23.92818,-10.86648 -11.90924,0 -19.97678,7.9029 -8.01262,7.90289 -8.01262,19.20842 0,11.68968 8.34192,19.8121 8.34195,8.12243 20.58045,8.12243 7.95777,0 13.391,-3.34776 5.48813,-3.34776 8.83589,-10.4823 l -23.37939,0 0,-14.43376 40.61205,0 0.10964,3.40264 q 0,10.59206 -5.4881,20.08651 -5.48814,9.49445 -14.21424,14.48864 -8.72609,4.99417 -20.47068,4.99417 -12.5678,0 -22.44639,-5.43322 -9.82374,-5.48811 -15.58626,-15.58626 -5.70763,-10.09812 -5.70763,-21.78783 0,-16.02532 10.59206,-27.87964 12.5678,-14.10447 32.70919,-14.10447 10.53718,0 19.70234,3.89658 7.73824,3.29287 15.14719,11.3055 z"
           id="path4722"
           inkscape:connector-curvature="0" />
        <path
           d="m 601.63783,162.65934 44.0696,0 0,15.03744 -28.81264,0 0,14.5984 28.81264,0 0,14.76303 -28.81264,0 0,21.23904 28.81264,0 0,15.09232 -44.0696,0 0,-80.73023 z"
           id="path4724"
           inkscape:connector-curvature="0" />
        <path
           d="m 660.0314,162.65934 14.70817,0 34.63,53.125 0,-53.125 15.36676,0 0,80.73023 -14.76305,0 -34.57516,-52.96035 0,52.96035 -15.36672,0 0,-80.73023 z"
           id="path4726"
           inkscape:connector-curvature="0" />
        <path
           d="m 785.48981,173.63558 -11.36041,10.04324 q -5.98205,-8.34192 -12.18362,-8.34192 -3.01847,0 -4.93931,1.64644 -1.92085,1.59155 -1.92085,3.62214 0,2.03061 1.37205,3.84169 1.86594,2.41476 11.25062,10.37254 8.78101,7.35407 10.64695,9.27492 4.6649,4.71978 6.58575,9.05539 1.97573,4.28075 1.97573,9.38468 0,9.93351 -6.86016,16.40949 -6.86013,6.47596 -17.89125,6.47596 -8.61637,0 -15.03744,-4.22585 -6.36622,-4.22584 -10.92135,-13.28123 l 12.89705,-7.79313 q 5.81743,10.70183 13.39103,10.70183 3.95143,0 6.6406,-2.30502 2.6892,-2.305 2.6892,-5.32346 0,-2.74405 -2.03061,-5.48814 -2.03061,-2.74405 -8.94563,-8.3968 -13.1715,-10.75671 -17.01316,-16.57414 -3.8417,-5.87228 -3.8417,-11.68968 0,-8.39683 6.36622,-14.37888 6.4211,-6.03692 15.80579,-6.03692 6.03692,0 11.47015,2.79893 5.48813,2.79897 11.85435,10.20792 z"
           id="path4728"
           inkscape:connector-curvature="0" />
        <path
           d="m 839.71242,160.62873 q 17.12293,0 29.41631,12.40315 12.34827,12.40314 12.34827,30.23954 0,17.67173 -12.18362,29.91023 -12.12877,12.2385 -29.4712,12.2385 -18.16569,0 -30.18466,-12.56777 -12.01897,-12.56779 -12.01897,-29.85537 0,-11.57994 5.59787,-21.29389 5.5979,-9.71398 15.36672,-15.36676 9.82375,-5.70763 21.12928,-5.70763 z m -0.16477,15.03743 q -11.19577,0 -18.82425,7.79313 -7.62849,7.79313 -7.62849,19.81213 0,13.391 9.60422,21.18413 7.46383,6.09181 17.12293,6.09181 10.92135,0 18.60472,-7.90289 7.68336,-7.9029 7.68336,-19.48281 0,-11.52506 -7.73824,-19.48284 -7.73825,-8.01266 -18.82425,-8.01266 z"
           id="path4730"
           inkscape:connector-curvature="0" />
        <path
           d="m 895.96561,162.65934 15.36673,0 0,66.07693 22.39154,0 0,14.6533 -37.75827,0 0,-80.73023 z"
           id="path4732"
           inkscape:connector-curvature="0" />
        <path
           d="m 969.94544,162.65934 15.58626,0 31.0627,80.73023 -15.9704,0 -6.31133,-16.62899 -32.92871,0 -6.58575,16.62899 -15.97041,0 31.11764,-80.73023 z m 7.90289,21.40366 -10.75671,27.71499 21.45854,0 -10.70183,-27.71499 z"
           id="path4734"
           inkscape:connector-curvature="0" />
      </g>
    </g>
  </g>
</svg>
