<?xml version="1.0" encoding="UTF-8" standalone="no"?>
<!-- Created with Inkscape (http://www.inkscape.org/) -->

<svg
   xmlns:dc="http://purl.org/dc/elements/1.1/"
   xmlns:cc="http://creativecommons.org/ns#"
   xmlns:rdf="http://www.w3.org/1999/02/22-rdf-syntax-ns#"
   xmlns:svg="http://www.w3.org/2000/svg"
   xmlns="http://www.w3.org/2000/svg"
   xmlns:sodipodi="http://sodipodi.sourceforge.net/DTD/sodipodi-0.dtd"
   xmlns:inkscape="http://www.inkscape.org/namespaces/inkscape"
   width="8.4977903"
   height="8.4977903"
   viewBox="0 0 8.4977903 8.4977899"
   id="svg2"
   version="1.1"
   inkscape:version="0.91 r13725"
   sodipodi:docname="instagram.svg">
  <defs
     id="defs4">
    <clipPath
       clipPathUnits="userSpaceOnUse"
       id="clipPath20">
      <path
         d="m 0,0 4282,0 0,4273 -4282,0 z"
         id="path18"
         inkscape:connector-curvature="0" />
    </clipPath>
    <clipPath
       clipPathUnits="userSpaceOnUse"
       id="clipPath26">
      <path
         d="M 4282.08,936.129 C 4282.08,419.121 3864.97,0 3350.43,0 L 931.656,0 C 417.117,0 0,419.121 0,936.129 L 0,3337.11 c 0,517 417.117,936.12 931.656,936.12 l 2418.774,0 c 514.54,0 931.65,-419.12 931.65,-936.12 z"
         id="path24"
         inkscape:connector-curvature="0" />
    </clipPath>
    <radialGradient
       fx="0"
       fy="0"
       cx="0"
       cy="0"
       r="1"
       gradientUnits="userSpaceOnUse"
       gradientTransform="matrix(1400.92,4083.18,4083.18,-1400.92,1244.54,10.5798)"
       spreadMethod="pad"
       id="radialGradient40">
      <stop
         style="stop-opacity:1;stop-color:#fbd459"
         offset="0"
         id="stop28" />
      <stop
         style="stop-opacity:1;stop-color:#f29b3e"
         offset="0.246305"
         id="stop30" />
      <stop
         style="stop-opacity:1;stop-color:#f14534"
         offset="0.37931"
         id="stop32" />
      <stop
         style="stop-opacity:1;stop-color:#c21889"
         offset="0.699507"
         id="stop34" />
      <stop
         style="stop-opacity:1;stop-color:#5a63b8"
         offset="0.985222"
         id="stop36" />
      <stop
         style="stop-opacity:1;stop-color:#5a63b8"
         offset="1"
         id="stop38" />
    </radialGradient>
  </defs>
  <sodipodi:namedview
     id="base"
     pagecolor="#ffffff"
     bordercolor="#666666"
     borderopacity="1.0"
     inkscape:pageopacity="0.0"
     inkscape:pageshadow="2"
     inkscape:zoom="22.4"
     inkscape:cx="14.209336"
     inkscape:cy="9.1833821"
     inkscape:document-units="px"
     inkscape:current-layer="g4799"
     showgrid="false"
     fit-margin-top="0"
     fit-margin-left="-1.6"
     fit-margin-right="0"
     fit-margin-bottom="0"
     inkscape:window-width="1366"
     inkscape:window-height="715"
     inkscape:window-x="-8"
     inkscape:window-y="-8"
     inkscape:window-maximized="1"
     units="px" />
  <metadata
     id="metadata7">
    <rdf:RDF>
      <cc:Work
         rdf:about="">
        <dc:format>image/svg+xml</dc:format>
        <dc:type
           rdf:resource="http://purl.org/dc/dcmitype/StillImage" />
        <dc:title></dc:title>
      </cc:Work>
    </rdf:RDF>
  </metadata>
  <g
     inkscape:label="Layer 1"
     inkscape:groupmode="layer"
     id="layer1"
     transform="translate(92.84296,-365.51008)">
    <g
       id="g10"
       transform="matrix(1.3333333,0,0,-1.3333333,-105.46666,937.22886)">
      <g
         id="g12"
         transform="scale(0.1,0.1)">
        <g
           transform="matrix(1.0288873,0,0,1.0000251,-50.454611,44.367554)"
           id="g4799"
           style="fill:#646464;fill-opacity:1">
          <path
             inkscape:connector-curvature="0"
             id="path44"
             d="m 159.70465,4179.685 c -10.25868,0 -18.64706,8.4063 -18.64706,18.6866 l 0,26.3604 c 0,10.2802 8.38839,18.6864 18.64706,18.6864 l 24.65156,0 c 10.25851,0 18.64694,-8.4062 18.64694,-18.6864 l 0,-26.3604 c 0,-10.2804 -8.38841,-18.6866 -18.64694,-18.6866 l -24.65156,0 z m 0,6.748 24.65156,0 c 6.6193,0 11.91328,5.3051 11.91328,11.9386 l 0,26.3604 c 0,6.6333 -5.29397,11.9384 -11.91328,11.9384 l -24.65156,0 c -6.61954,0 -11.91339,-5.3051 -11.91339,-11.9384 l 0,-26.3604 c 0,-6.6335 5.29386,-11.9386 11.91339,-11.9386 z"
             style="color:#000000;font-style:normal;font-variant:normal;font-weight:normal;font-stretch:normal;font-size:medium;line-height:normal;font-family:sans-serif;text-indent:0;text-align:start;text-decoration:none;text-decoration-line:none;text-decoration-style:solid;text-decoration-color:#000000;letter-spacing:normal;word-spacing:normal;text-transform:none;direction:ltr;block-progression:tb;writing-mode:lr-tb;baseline-shift:baseline;text-anchor:start;white-space:normal;clip-rule:nonzero;display:inline;overflow:visible;visibility:visible;opacity:1;isolation:auto;mix-blend-mode:normal;color-interpolation:sRGB;color-interpolation-filters:linearRGB;solid-color:#000000;solid-opacity:1;fill:#ffffff;fill-opacity:1;fill-rule:nonzero;stroke:none;stroke-width:350.65100098;stroke-linecap:butt;stroke-linejoin:miter;stroke-miterlimit:10;stroke-dasharray:none;stroke-dashoffset:0;stroke-opacity:1;color-rendering:auto;image-rendering:auto;shape-rendering:auto;text-rendering:auto;enable-background:accumulate" />
          <path
             inkscape:connector-curvature="0"
             id="path46"
             d="m 171.57236,4193.9297 c -9.45852,0 -17.21194,7.977 -17.21194,17.7081 0,9.7323 7.7343,17.9941 17.32877,17.7062 5.27328,-0.1582 9.78468,-2.0802 12.79957,-5.3915 3.01489,-3.3113 4.39257,-7.7959 4.29477,-12.4046 l 0,0 0,0 c -0.20439,-9.6196 -7.75205,-17.618 -17.21117,-17.618 z m 0,8.2478 c 5.12529,0 9.082,4.1687 9.19635,9.5505 0.0608,2.8666 -0.72386,5.0409 -2.13073,6.5862 -1.40689,1.5451 -3.57668,2.6774 -7.18242,2.7855 l 0,0 0,0 c -4.98356,0.1497 -9.0783,-4.1895 -9.0783,-9.4619 0,-5.2737 4.06926,-9.4603 9.19517,-9.4603 z"
             style="color:#000000;font-style:normal;font-variant:normal;font-weight:normal;font-stretch:normal;font-size:medium;line-height:normal;font-family:sans-serif;text-indent:0;text-align:start;text-decoration:none;text-decoration-line:none;text-decoration-style:solid;text-decoration-color:#000000;letter-spacing:normal;word-spacing:normal;text-transform:none;direction:ltr;block-progression:tb;writing-mode:lr-tb;baseline-shift:baseline;text-anchor:start;white-space:normal;clip-rule:nonzero;display:inline;overflow:visible;visibility:visible;opacity:1;isolation:auto;mix-blend-mode:normal;color-interpolation:sRGB;color-interpolation-filters:linearRGB;solid-color:#000000;solid-opacity:1;fill:#ffffff;fill-opacity:1;fill-rule:nonzero;stroke:none;stroke-width:428.57299805;stroke-linecap:butt;stroke-linejoin:miter;stroke-miterlimit:10;stroke-dasharray:none;stroke-dashoffset:0;stroke-opacity:1;color-rendering:auto;image-rendering:auto;shape-rendering:auto;text-rendering:auto;enable-background:accumulate" />
          <path
             inkscape:connector-curvature="0"
             id="path48"
             style="fill:#ffffff;fill-opacity:1;fill-rule:nonzero;stroke:none"
             d="m 192.52819,4228.4339 c 0,-2.1041 -1.70219,-3.8102 -3.80207,-3.8102 -2.0997,0 -3.80207,1.7061 -3.80207,3.8102 0,2.1044 1.70237,3.8102 3.80207,3.8102 2.09988,0 3.80207,-1.7058 3.80207,-3.8102" />
        </g>
      </g>
    </g>
  </g>
</svg>
